HIERARCHY
ROOT root
{
	OFFSET	0	13.1	24.9
	CHANNELS 6  Xposition Yposition Zposition Xrotation Yrotation Zrotation
	JOINT spine_1
	{
		OFFSET	0	9.99999	0
		CHANNELS 3  Xrotation Yrotation Zrotation
		JOINT spine_2
		{
			OFFSET	0	112	-10
			CHANNELS 3  Xrotation Yrotation Zrotation
			JOINT spine_3
			{
				OFFSET	0	206.5	19.3
				CHANNELS 3  Xrotation Yrotation Zrotation
				JOINT spine_4
				{
					OFFSET	0	110.4	14.6
					CHANNELS 3  Xrotation Yrotation Zrotation
					JOINT neck_1
					{
						OFFSET	0	71.8	-50.3
						CHANNELS 3  Xrotation Yrotation Zrotation
						JOINT neck_2
						{
							OFFSET	0	86.2	-25.8
							CHANNELS 3  Xrotation Yrotation Zrotation
							JOINT head_ee
							{
								OFFSET	0	179.8	-8.7
								CHANNELS 3  Xrotation Yrotation Zrotation
								End Site
								{
									OFFSET	1	0	0
								}
							}
						}
					}
					JOINT left_clavicle
					{
						OFFSET	-43.2	22.4	-70.8
						CHANNELS 3  Xrotation Yrotation Zrotation
						JOINT left_shoulder
						{
							OFFSET	-93.9	-5.79999	48.7
							CHANNELS 3  Xrotation Yrotation Zrotation
							JOINT left_elbow
							{
								OFFSET	-291.4	-30.8	15.2
								CHANNELS 3  Xrotation Yrotation Zrotation
								JOINT left_lowarm_twist
								{
									OFFSET	-110.7	-3.89999	13.6
									CHANNELS 3  Xrotation Yrotation Zrotation
									JOINT left_hand
									{
										OFFSET	-110.7	-3.89999	13.6
										CHANNELS 3  Xrotation Yrotation Zrotation
										JOINT left_ee
										{
											OFFSET	-80.8	-5.10001	12.1
											CHANNELS 3  Xrotation Yrotation Zrotation
											End Site
											{
												OFFSET	1	0	0
											}
										}
									}
								}
							}
						}
					}
					JOINT right_clavicle
					{
						OFFSET	43.2	22.4	-70.8
						CHANNELS 3  Xrotation Yrotation Zrotation
						JOINT right_shoulder
						{
							OFFSET	93.9	-5.79999	48.7
							CHANNELS 3  Xrotation Yrotation Zrotation
							JOINT right_elbow
							{
								OFFSET	291.4	-30.8	15.2
								CHANNELS 3  Xrotation Yrotation Zrotation
								JOINT right_lowarm_twist
								{
									OFFSET	110.7	-3.89999	13.6
									CHANNELS 3  Xrotation Yrotation Zrotation
									JOINT right_hand
									{
										OFFSET	110.7	-3.89999	13.6
										CHANNELS 3  Xrotation Yrotation Zrotation
										JOINT right_ee
										{
											OFFSET	80.8	-5.10001	12.1
											CHANNELS 3  Xrotation Yrotation Zrotation
											End Site
											{
												OFFSET	1	0	0
											}
										}
									}
								}
							}
						}
					}
				}
			}
		}
	}
	JOINT left_hip
	{
		OFFSET	-82.8	-127.5	0.300001
		CHANNELS 3  Xrotation Yrotation Zrotation
		JOINT left_knee
		{
			OFFSET	-28.2	-396.7	2.2
			CHANNELS 3  Xrotation Yrotation Zrotation
			JOINT left_ankle
			{
				OFFSET	-11.7	-411.3	35.4
				CHANNELS 3  Xrotation Yrotation Zrotation
				JOINT left_toes
				{
					OFFSET	0	-60	-88.6
					CHANNELS 3  Xrotation Yrotation Zrotation
					JOINT left_foot_ee
					{
						OFFSET	-22.5	-16.5	-42.2
						CHANNELS 3  Xrotation Yrotation Zrotation
						End Site
						{
							OFFSET	1	0	0
						}
					}
				}
			}
		}
	}
	JOINT right_hip
	{
		OFFSET	82.8	-127.5	0.300001
		CHANNELS 3  Xrotation Yrotation Zrotation
		JOINT right_knee
		{
			OFFSET	28.2	-396.7	2.2
			CHANNELS 3  Xrotation Yrotation Zrotation
			JOINT right_ankle
			{
				OFFSET	11.7	-411.3	35.4
				CHANNELS 3  Xrotation Yrotation Zrotation
				JOINT right_toes
				{
					OFFSET	0	-60	-88.6
					CHANNELS 3  Xrotation Yrotation Zrotation
					JOINT right_foot_ee
					{
						OFFSET	22.5	-16.5	-42.2
						CHANNELS 3  Xrotation Yrotation Zrotation
						End Site
						{
							OFFSET	1	0	0
						}
					}
				}
			}
		}
	}
}
MOTION
Frames: 9
Frame Time: 0.02
2532.7 700.344 -1575.76 1.42781 58.939 -11.7412 2.5604 0.655797 5.20144 2.57538 0.323951 5.23251 2.60208 -0.54795 5.21387 2.56428 0.281196 5.23498 -6.20165 18.4845 -5.05611 -5.92923 37.9068 -1.54883 -0.0 0.0 -0.0 -5.8392 14.1265 -7.92846 11.9935 -13.6929 57.5046 3.47344 -59.8211 1.99858 -17.8031 -0.955194 2.05718 -2.02122 14.3804 -6.704 -0.0 0.0 -0.0 10.7455 7.62066 -21.4701 -24.0978 20.575 -71.1705 0.189542 5.36412 -0.00887914 16.4663 -0.28345 2.0771 -2.00473 17.3495 21.1918 0.0 0.0 0.0 -33.5551 17.7344 23.3747 7.6317 -0.388592 -1.10527 23.2541 -0.71918 -3.15298 -30.92 0.0 0.0 -0.0 0.0 -0.0 19.3375 1.09063 -5.30587 -1.59094 -0.0622295 -0.236215 13.6451 20.7968 2.17563 -28.6185 0.0 0.0 0.0 0.0 0.0 
2509.68 698.082 -1578.19 2.29405 57.8583 -12.9556 2.61491 0.810715 5.08009 2.62913 0.486248 5.12123 2.66979 -0.362656 5.13144 2.63335 0.451219 5.12443 -5.86351 18.2344 -5.89031 -5.48259 38.0093 -2.59396 -0.0 0.0 -0.0 -6.25713 15.7079 -8.18663 9.28805 -13.6225 58.3109 3.12584 -57.1331 1.70219 -17.2704 -0.917517 2.00033 -1.92565 14.9697 -5.82007 -0.0 0.0 -0.0 10.7416 7.11651 -21.4561 -23.712 23.1559 -70.9337 0.187393 5.30365 -0.00867937 15.8778 -0.283671 2.00194 -1.85262 18.0137 20.383 0.0 0.0 0.0 -28.4435 19.6876 20.7704 -10.9546 0.293773 1.65295 29.41 0.360713 -3.8445 -28.005 0.0 0.0 -0.0 0.0 -0.0 17.9148 2.28797 -4.83445 -1.53496 -0.060152 -0.227876 19.1711 21.5583 2.99542 -27.4463 0.0 0.0 0.0 0.0 0.0 
2482.05 694.759 -1589.54 2.58483 56.5316 -13.1218 2.53054 0.882578 4.89087 2.54366 0.56996 4.93696 2.59059 -0.256255 4.96308 2.55662 0.529807 4.94142 -5.63529 17.8763 -6.98914 -5.14395 38.1198 -3.89726 -0.0 0.0 -0.0 -6.70293 16.1315 -8.7956 6.83681 -14.1208 59.0948 2.61538 -52.3283 1.28507 -16.2817 -0.848987 1.8939 -1.77818 15.8644 -4.47619 -0.0 0.0 -0.0 10.7083 6.41404 -21.373 -23.8052 26.1251 -70.3728 0.177823 5.03423 -0.00781711 15.0404 -0.282655 1.89498 -1.62328 19.1452 19.2274 0.0 0.0 0.0 -19.3216 22.3303 18.0925 -37.0906 -0.292125 5.58667 39.8394 -0.191003 -4.86354 -23.5907 0.0 0.0 -0.0 0.0 -0.0 16.054 3.94441 -4.849 -2.5857 -0.0977936 -0.384737 27.0878 22.7593 4.08532 -25.9025 0.0 0.0 0.0 0.0 0.0 
2469.15 698.229 -1591.58 2.23457 55.8592 -12.2636 2.46855 0.933736 4.64163 2.48031 0.636818 4.69149 2.5308 -0.154266 4.73191 2.50006 0.594146 4.69707 -5.04442 17.7897 -7.69675 -4.38124 38.4317 -4.90056 -0.0 0.0 -0.0 -6.77147 16.0918 -8.91998 4.10387 -15.0624 60.5291 2.19321 -47.3664 0.962078 -15.7023 -0.809692 1.83099 -1.57718 15.9647 -3.19042 -0.0 0.0 -0.0 11.079 7.22875 -22.1969 -22.4577 27.1286 -71.2756 0.155688 4.41023 -0.00599481 14.7755 -0.282009 1.86115 -1.59718 19.3871 19.1423 0.0 0.0 0.0 -15.4908 23.3893 15.6448 -43.8911 -0.73269 6.53422 40.0373 -0.482715 -4.88286 -22.8859 0.0 0.0 -0.0 0.0 -0.0 15.2809 4.06605 -4.25527 -2.86045 -0.107161 -0.425862 28.8727 23.5022 4.33464 -24.8755 0.0 0.0 0.0 0.0 0.0 
2452.93 711.973 -1591.59 2.5937 55.3149 -12.6846 2.39067 0.860874 4.61351 2.40233 0.565887 4.6588 2.44691 -0.225862 4.68754 2.41663 0.516459 4.66453 -4.33182 17.936 -8.07972 -3.47865 38.9304 -5.58556 -0.0 0.0 -0.0 -6.64341 15.9421 -8.75396 0.597186 -16.55 62.526 1.84628 -42.4417 0.716952 -14.8744 -0.754659 1.74044 -1.26655 15.7106 -1.39448 -0.0 0.0 -0.0 11.3329 8.49155 -22.773 -21.2478 28.4232 -71.7142 0.199718 5.65028 -0.00985576 14.4145 -0.280876 1.81506 -1.57779 19.3813 19.0045 0.0 0.0 0.0 -13.6207 23.9548 13.9051 -47.08 -0.977474 6.95942 40.3258 -0.714467 -4.90943 -22.2679 0.0 0.0 -0.0 0.0 -0.0 14.5363 4.01103 -3.5248 -3.2346 -0.119599 -0.481935 29.9991 24.4091 4.50993 -24.0349 0.0 0.0 0.0 0.0 0.0 
2438.19 704.281 -1592.43 2.61993 55.8993 -12.1921 2.30024 0.721938 4.43822 2.31109 0.43835 4.47506 2.34417 -0.329063 4.48441 2.31633 0.382565 4.48017 -3.61373 18.0556 -8.45945 -2.56006 39.3759 -6.28697 -0.0 0.0 -0.0 -6.55473 15.3917 -8.76899 -1.37593 -18.2456 64.0309 1.55724 -37.6443 0.530828 -13.7859 -0.6843 1.62019 -0.890336 15.168 0.687349 -0.0 0.0 -0.0 11.5923 9.48968 -23.3575 -19.9929 30.0721 -72.2669 0.322546 9.07818 -0.0256064 14.0583 -0.279473 1.76959 -1.55241 19.3626 18.8198 0.0 0.0 0.0 -11.2779 24.6297 11.5966 -49.1473 -1.14872 7.22765 40.1856 -0.985276 -4.89979 -21.4088 0.0 0.0 -0.0 0.0 -0.0 13.9454 3.9426 -2.77335 -3.7835 -0.137183 -0.56434 30.4196 25.5646 4.61498 -23.2856 0.0 0.0 0.0 0.0 0.0 
2425.93 708.421 -1591.25 2.72029 56.6601 -12.6328 2.13324 0.677649 4.4495 2.14417 0.393434 4.48351 2.17426 -0.388228 4.48396 2.14636 0.324069 4.48905 -3.15685 17.4768 -8.35368 -2.07241 38.2071 -6.4291 -0.0 0.0 -0.0 -6.4403 15.2325 -8.62517 -3.53809 -18.6311 65.2622 1.32406 -33.2593 0.395481 -12.9308 -0.63065 1.52482 -0.519861 14.0318 2.50619 -0.0 0.0 -0.0 11.5209 10.9918 -23.1947 -18.9245 31.6359 -72.3414 0.48194 13.4276 -0.0567329 13.8642 -0.27859 1.74481 -1.53619 19.171 18.6294 0.0 0.0 0.0 -9.31074 25.104 10.1814 -51.2593 -1.3336 7.49523 39.104 -1.47025 -4.81051 -20.1815 0.0 0.0 -0.0 0.0 -0.0 13.3817 3.79405 -2.13495 -4.82682 -0.168423 -0.721408 30.6237 27.122 4.71928 -22.3248 0.0 0.0 0.0 0.0 0.0 
2407.22 710.71 -1591.62 3.07209 57.034 -13.0793 1.85472 0.600469 4.44311 1.86564 0.316815 4.47223 1.89043 -0.484095 4.45726 1.86279 0.225193 4.47777 -2.69542 16.5239 -8.06628 -1.64524 36.2235 -6.39732 -0.0 0.0 -0.0 -6.04532 14.9969 -8.03579 -5.56074 -19.1694 66.9103 1.05564 -27.6059 0.259355 -11.7431 -0.55851 1.39106 -0.0346231 12.3915 4.88622 -0.0 0.0 -0.0 11.5416 12.6609 -23.2187 -17.748 33.717 -73.1002 0.696069 19.0249 -0.116639 13.588 -0.277188 1.70956 -1.51552 18.8524 18.3564 0.0 0.0 0.0 -7.55325 25.3674 8.15458 -52.907 -1.48466 7.69922 37.3456 -2.14084 -4.65936 -18.451 0.0 0.0 -0.0 0.0 -0.0 13.3478 3.7143 -0.929591 -6.18649 -0.204832 -0.926889 30.7838 29.3271 4.86332 -20.9961 0.0 0.0 0.0 0.0 0.0 
2397.85 699.77 -1588.77 2.07771 58.7184 -12.3317 1.89842 0.475357 4.33714 1.90886 0.198678 4.35854 1.92379 -0.577871 4.3247 1.89771 0.111713 4.36163 -2.33031 14.9604 -7.12637 -1.46055 32.6448 -5.66139 -0.0 0.0 -0.0 -5.45044 14.5951 -7.15579 -7.03906 -19.6619 67.779 0.817703 -22.0511 0.159326 -10.7544 -0.500591 1.2786 0.356775 10.8276 6.7632 -0.0 0.0 -0.0 11.7757 14.8726 -23.6903 -16.4715 34.5719 -71.9788 0.875654 23.4497 -0.181738 14.324 -0.280546 1.80351 -1.41957 18.0506 17.362 0.0 0.0 0.0 -6.48072 25.3701 7.42553 -51.9658 -1.39765 7.58323 35.0024 -2.98907 -4.44787 -16.8399 0.0 0.0 -0.0 0.0 -0.0 12.6775 3.23789 -0.093871 -6.26434 -0.206769 -0.93868 31.3568 28.7636 4.89932 -19.6534 0.0 0.0 0.0 0.0 0.0 
